<?xml version="1.0" standalone="no"?>
<!DOCTYPE svg PUBLIC "-//W3C//DTD SVG 20010904//EN"
 "http://www.w3.org/TR/2001/REC-SVG-20010904/DTD/svg10.dtd">
<svg version="1.0" xmlns="http://www.w3.org/2000/svg"
 width="1242.000000pt" height="1242.000000pt" viewBox="0 0 1242.000000 1242.000000"
 preserveAspectRatio="xMidYMid meet">

<g transform="translate(0.000000,1242.000000) scale(0.100000,-0.100000)"
fill="#000000" stroke="none">
<path d="M1710 8574 c-94 -44 -141 -102 -160 -202 -15 -76 -1 -143 43 -204 38
-53 60 -72 115 -98 l42 -20 0 -249 0 -249 37 -49 c20 -26 74 -96 120 -155 l83
-106 0 -306 0 -305 -122 -60 c-76 -37 -152 -83 -198 -120 -41 -33 -78 -60 -82
-58 -4 1 -69 73 -143 161 l-135 158 0 279 0 278 43 19 c98 43 162 144 161 252
-1 111 -54 199 -148 248 -42 22 -64 27 -126 27 -114 0 -195 -48 -248 -150 -36
-67 -38 -179 -5 -241 35 -66 70 -101 128 -130 l55 -26 0 -302 0 -302 113 -134
c61 -73 134 -159 160 -191 l49 -59 -29 -37 c-79 -101 -170 -300 -199 -436 -25
-113 -29 -295 -10 -411 77 -470 435 -833 906 -921 107 -20 280 -20 390 -1 87
16 231 60 287 90 18 9 34 13 36 8 3 -4 10 -33 17 -65 l12 -58 122 -97 c67 -53
175 -137 239 -187 114 -87 117 -91 110 -120 -5 -16 -8 -59 -8 -95 1 -152 119
-265 275 -264 159 2 274 119 274 280 -1 110 -55 192 -164 249 -54 29 -163 26
-229 -5 -46 -21 -55 -22 -74 -10 -62 38 -417 323 -421 338 -2 9 -7 33 -11 52
-4 19 -9 42 -11 51 -3 11 22 39 77 85 102 86 191 197 253 314 26 49 50 90 52
90 3 0 36 -27 74 -59 42 -37 82 -62 102 -66 18 -3 85 -5 148 -3 l115 3 3 68 3
67 -119 0 -119 0 -76 66 c-42 36 -77 72 -77 80 0 8 7 56 16 106 19 111 14 329
-10 423 l-16 60 52 48 52 47 161 0 161 0 22 -73 c39 -134 134 -246 258 -306
90 -44 142 -54 254 -49 87 4 107 9 174 41 175 83 281 229 302 417 24 214 -139
453 -354 520 -267 84 -540 -58 -632 -328 l-26 -77 -185 -3 -185 -2 -48 -40
c-27 -22 -51 -40 -55 -40 -4 0 -18 23 -32 52 -13 29 -48 86 -77 126 -53 74
-53 75 -34 96 10 11 83 96 160 189 l142 167 0 179 0 178 51 24 c105 49 167
160 156 279 -9 99 -65 176 -162 222 -73 34 -132 36 -209 8 -188 -71 -240 -310
-98 -456 19 -20 55 -45 79 -56 l43 -19 0 -155 0 -155 -107 -127 c-60 -69 -122
-142 -139 -160 l-30 -35 -94 71 c-52 40 -124 86 -162 104 l-68 33 0 341 0 341
172 219 c94 121 180 233 190 249 15 25 18 52 18 168 l0 138 43 18 c140 61 202
234 133 374 -129 265 -526 170 -526 -126 0 -98 73 -208 167 -249 l43 -19 0
-122 -1 -122 -187 -240 -187 -240 -3 -337 c-1 -186 -5 -338 -7 -338 -2 0 -37
7 -77 16 -83 17 -268 23 -375 11 l-73 -8 0 308 -1 308 -119 154 -120 154 0
228 0 228 55 26 c85 41 139 118 151 218 25 210 -195 370 -386 281z m188 -134
c89 -54 78 -193 -18 -243 -70 -36 -168 6 -191 82 -18 59 -5 103 41 145 34 31
47 36 88 36 29 0 59 -8 80 -20z m1288 -2 c59 -41 78 -110 48 -174 -33 -69
-119 -101 -184 -67 -98 51 -108 188 -17 243 44 27 112 26 153 -2z m-1875 -781
c112 -74 75 -237 -58 -253 -48 -6 -100 20 -130 65 -81 122 66 269 188 188z
m2239 -252 c46 -34 59 -60 60 -117 0 -41 -5 -54 -35 -87 -82 -91 -227 -45
-241 76 -14 114 125 195 216 128z m-1040 -870 c206 -31 388 -125 540 -279 183
-185 280 -422 280 -686 0 -175 -34 -308 -120 -468 -268 -496 -911 -658 -1383
-350 -520 340 -600 1057 -168 1501 224 231 527 332 851 282z m1990 -168 c73
-35 133 -96 173 -176 28 -58 32 -75 32 -151 0 -76 -3 -93 -33 -152 -41 -84
-121 -159 -193 -183 -71 -24 -208 -17 -266 13 -60 31 -140 114 -168 174 -33
70 -32 78 10 78 31 0 37 -5 59 -47 51 -100 139 -156 244 -156 171 0 293 130
280 297 -7 76 -33 130 -91 183 -85 79 -214 93 -318 37 -54 -30 -83 -62 -118
-131 -18 -36 -26 -43 -51 -43 -16 0 -32 5 -35 11 -9 14 47 126 79 161 109 116
262 149 396 85z m-70 -202 c46 -24 70 -66 70 -124 0 -46 -4 -56 -39 -94 -36
-38 -42 -41 -92 -41 -90 0 -142 54 -141 145 1 22 8 52 17 65 38 58 124 81 185
49z m-719 -2088 c93 -62 87 -189 -12 -239 -96 -49 -199 18 -199 129 0 33 7 50
32 79 18 20 41 40 52 44 39 16 92 11 127 -13z"/>
<path d="M2322 6253 c-23 -9 -42 -61 -42 -117 l0 -54 -108 -4 c-128 -4 -159
-19 -220 -107 l-37 -53 -3 -309 c-4 -364 0 -396 61 -465 53 -60 87 -74 208
-81 l99 -6 0 -59 c0 -52 4 -63 29 -89 38 -37 63 -37 95 2 22 25 26 41 26 90 0
49 3 59 18 59 88 1 186 11 214 23 105 44 177 217 115 275 -49 46 -108 14 -121
-66 -3 -22 -14 -50 -25 -63 -19 -24 -21 -24 -248 -27 -266 -4 -292 1 -317 56
-15 33 -17 72 -14 329 3 279 4 293 24 320 l21 28 249 3 c179 2 255 -1 272 -9
13 -8 26 -28 33 -53 24 -96 53 -125 103 -106 94 35 34 230 -87 289 -35 17 -63
21 -140 21 l-97 0 0 55 c0 97 -43 144 -108 118z"/>
<path d="M6000 6055 l0 -505 75 0 75 0 0 325 c0 179 3 325 8 325 4 -1 165
-153 357 -340 l350 -339 3 497 c1 273 0 503 -3 510 -3 8 -28 12 -75 12 l-70 0
-2 -334 -3 -333 -350 343 c-192 189 -353 344 -357 344 -5 0 -8 -227 -8 -505z"/>
<path d="M5091 6526 c-12 -14 -16 -909 -4 -954 5 -20 11 -22 79 -22 l74 0 0
170 0 170 83 0 82 0 110 -170 110 -170 88 0 c68 0 87 3 81 13 -4 6 -56 90
-116 184 l-109 173 59 57 c69 68 92 128 92 235 0 102 -16 151 -67 208 -60 67
-128 99 -239 110 -139 15 -309 13 -323 -4z m354 -147 c77 -22 136 -115 120
-192 -11 -50 -44 -102 -78 -123 -25 -14 -57 -19 -139 -22 l-108 -4 0 176 0
176 83 0 c45 0 100 -5 122 -11z"/>
<path d="M7155 6528 c-3 -7 -4 -229 -3 -493 l3 -480 338 -3 337 -2 0 69 c0 54
-4 70 -16 75 -9 3 -126 6 -260 6 l-244 0 0 135 0 135 218 0 c120 0 221 2 223
4 2 2 3 36 1 75 l-4 71 -219 0 -219 0 0 135 0 135 248 2 247 3 0 70 0 70 -323
3 c-253 2 -324 0 -327 -10z"/>
<path d="M8063 6534 c-10 -5 -13 -113 -13 -495 l0 -489 325 0 326 0 -3 73 -3
72 -242 3 -243 2 -2 418 -3 417 -65 2 c-36 1 -71 -1 -77 -3z"/>
<path d="M8927 6534 c-4 -4 -7 -227 -7 -496 l0 -488 320 0 321 0 -3 73 -3 72
-242 3 -243 2 -2 418 -3 417 -65 3 c-36 2 -69 0 -73 -4z"/>
<path d="M4820 4975 l0 -385 60 0 60 0 2 247 3 248 185 -180 c102 -98 222
-215 268 -259 l82 -81 0 388 0 387 -60 0 -60 0 -2 -246 -3 -245 -262 255
c-143 141 -264 256 -267 256 -3 0 -6 -173 -6 -385z"/>
<path d="M7167 5331 c-167 -55 -267 -237 -236 -432 19 -125 86 -216 201 -275
75 -39 215 -46 303 -15 85 30 93 40 70 91 -10 23 -22 43 -26 45 -4 3 -29 -5
-55 -17 -69 -31 -172 -31 -237 1 -183 89 -184 370 -1 477 76 45 166 37 275
-23 3 -2 16 20 28 48 25 61 21 70 -47 94 -74 26 -205 29 -275 6z"/>
<path d="M9057 5340 c-122 -31 -215 -124 -252 -254 -26 -90 -18 -215 20 -291
36 -75 95 -134 171 -171 55 -27 67 -29 174 -29 106 0 119 2 168 28 l52 27 -16
38 c-9 20 -18 43 -21 50 -3 8 -13 11 -22 8 -9 -3 -43 -15 -76 -26 -129 -47
-264 8 -317 127 -15 34 -21 68 -21 118 0 114 43 190 134 240 73 39 152 40 227
1 l52 -27 20 47 c11 25 20 52 20 59 0 40 -219 78 -313 55z"/>
<path d="M3882 4968 l3 -373 58 -3 57 -3 0 156 0 155 145 0 145 0 0 60 0 60
-145 0 -145 0 0 105 0 105 170 0 170 0 0 55 0 55 -230 0 -230 0 2 -372z"/>
<path d="M4492 4968 l3 -373 58 -3 57 -3 0 376 0 375 -60 0 -60 0 2 -372z"/>
<path d="M5632 5288 l3 -53 93 -3 92 -3 0 -304 c0 -167 3 -310 6 -319 5 -12
20 -16 60 -16 l54 0 2 318 3 317 98 3 97 3 0 54 0 55 -256 0 -255 0 3 -52z"/>
<path d="M6290 4965 l0 -375 255 0 255 0 0 60 0 60 -195 0 -195 0 0 100 0 100
168 2 167 3 0 55 0 55 -167 3 -168 2 0 100 0 100 190 0 190 0 0 55 0 55 -250
0 -250 0 0 -375z"/>
<path d="M7690 4965 l0 -376 58 3 57 3 3 158 3 157 184 0 185 0 0 -160 0 -161
58 3 57 3 3 373 2 372 -60 0 -60 0 0 -155 0 -155 -185 0 -185 0 0 155 0 155
-60 0 -60 0 0 -375z"/>
<path d="M9550 4965 l0 -375 245 0 245 0 0 60 0 60 -185 0 -185 0 0 315 0 315
-60 0 -60 0 0 -375z"/>
<path d="M10192 5058 c3 -315 3 -313 76 -386 57 -57 104 -76 200 -80 78 -4 88
-2 149 28 67 33 115 85 140 153 8 21 12 121 12 300 l1 267 -60 0 -59 0 -3
-267 c-3 -259 -4 -269 -25 -299 -68 -95 -230 -89 -288 11 -25 41 -25 44 -25
298 l0 257 -61 0 -60 0 3 -282z"/>
<path d="M10962 4968 l3 -373 155 0 c146 0 158 2 211 26 96 45 135 125 115
234 -7 34 -59 98 -100 120 -17 10 -16 13 16 45 67 67 70 191 5 258 -47 48
-106 62 -269 62 l-138 0 2 -372z m273 248 c40 -17 55 -42 55 -94 0 -69 -52
-102 -162 -102 l-38 0 0 105 0 105 55 0 c31 0 71 -6 90 -14z m41 -327 c43 -21
60 -59 49 -106 -14 -53 -56 -73 -157 -73 l-78 0 0 101 0 102 79 -6 c43 -3 92
-11 107 -18z"/>
</g>
</svg>
