<?xml version="1.0" standalone="no"?>
<!DOCTYPE svg PUBLIC "-//W3C//DTD SVG 20010904//EN"
 "http://www.w3.org/TR/2001/REC-SVG-20010904/DTD/svg10.dtd">
<svg version="1.0" xmlns="http://www.w3.org/2000/svg"
 width="2694.000000pt" height="434.000000pt" viewBox="0 0 2694.000000 434.000000"
 preserveAspectRatio="xMidYMid meet">

<g transform="translate(0.000000,434.000000) scale(0.100000,-0.100000)"
fill="#000000" stroke="none">
<path d="M1915 3788 c-97 -11 -140 -21 -140 -34 3 -44 31 -164 39 -164 6 0 52
7 101 15 184 30 437 16 655 -36 435 -103 843 -404 1086 -799 57 -93 136 -270
168 -375 15 -49 31 -104 37 -121 5 -17 9 -38 9 -47 0 -20 7 -20 86 -6 97 17
95 16 88 57 -13 70 -65 234 -105 330 -269 649 -875 1103 -1574 1182 -107 12
-338 11 -450 -2z"/>
<path d="M5105 3788 c-49 -5 -93 -12 -96 -16 -4 -4 1 -43 10 -87 l16 -80 40 2
c22 0 91 4 152 8 292 20 624 -97 857 -301 226 -197 360 -445 410 -757 21 -126
20 -217 -3 -352 -27 -153 -45 -215 -101 -331 -166 -352 -456 -587 -837 -681
-94 -23 -129 -26 -268 -27 -172 0 -250 12 -400 61 -168 55 -360 174 -485 302
-131 133 -250 338 -304 525 -14 49 -27 91 -29 93 -5 5 -158 -25 -166 -32 -9
-9 37 -178 70 -258 186 -450 595 -776 1074 -856 132 -22 358 -20 490 3 241 44
494 167 681 334 177 157 323 379 398 603 166 491 41 1052 -315 1420 -317 326
-730 475 -1194 427z"/>
<path d="M2015 3534 c-64 -6 -174 -25 -260 -45 -338 -78 -674 -287 -889 -553
-100 -125 -146 -195 -211 -326 -119 -236 -175 -477 -175 -747 0 -138 17 -304
33 -319 6 -6 123 14 154 26 19 8 20 13 13 47 -26 117 -31 258 -16 383 8 69 17
134 20 145 22 98 30 128 47 180 27 84 37 107 95 220 197 390 559 671 996 775
201 47 496 45 688 -7 370 -98 681 -319 886 -628 84 -126 168 -315 200 -447 16
-65 22 -78 39 -78 28 1 145 26 152 34 8 8 -34 165 -73 267 -236 628 -838 1055
-1514 1073 -80 2 -163 2 -185 0z"/>
<path d="M2035 3269 c-224 -27 -361 -66 -526 -150 -236 -120 -439 -312 -576
-544 -203 -341 -246 -775 -116 -1164 69 -206 172 -371 332 -532 230 -230 506
-370 806 -410 95 -12 399 -7 446 8 l26 8 -17 83 c-9 45 -19 85 -22 87 -3 3
-29 0 -57 -6 -33 -7 -115 -9 -214 -7 -199 6 -315 33 -485 114 -151 72 -216
116 -341 237 -172 166 -280 361 -342 612 -32 130 -32 390 0 520 52 210 125
360 259 525 126 157 321 296 510 364 177 63 223 71 432 71 182 0 201 -2 293
-27 180 -51 276 -95 422 -197 218 -152 401 -412 468 -666 13 -50 28 -90 33
-90 5 1 44 7 87 15 l79 14 -7 42 c-20 133 -136 389 -239 524 -139 185 -276
301 -479 410 -168 90 -303 130 -512 155 -142 16 -157 16 -260 4z"/>
<path d="M6833 2701 c-45 -9 -84 -19 -87 -22 -3 -3 0 -23 6 -45 21 -67 16
-412 -6 -519 -108 -519 -455 -931 -946 -1123 -94 -37 -239 -70 -383 -86 -123
-15 -151 -15 -273 -1 -277 31 -476 102 -704 253 -209 139 -371 323 -496 566
-45 85 -124 308 -124 347 0 10 -4 20 -9 24 -8 4 -159 -23 -169 -31 -7 -5 18
-110 50 -209 42 -128 136 -315 218 -430 93 -130 302 -336 425 -417 294 -194
600 -288 940 -288 572 0 1076 270 1400 750 175 259 275 592 275 912 0 93 -19
307 -29 324 -4 8 -29 7 -88 -5z"/>
<path d="M8442 2317 l-102 -102 0 -298 0 -297 505 0 505 0 0 100 0 100 -405 0
-405 0 0 148 0 148 53 52 53 52 352 0 352 0 0 100 0 100 -403 0 -402 0 -103
-103z"/>
<path d="M9455 2020 l0 -400 503 0 502 0 0 400 0 400 -502 0 -503 0 0 -400z
m805 0 l0 -200 -305 0 -305 0 0 193 c0 107 3 197 7 200 3 4 141 7 305 7 l298
0 0 -200z"/>
<path d="M10570 2020 l0 -400 100 0 100 0 0 150 0 150 123 0 122 0 150 -150
150 -150 126 0 126 0 -144 142 c-79 78 -143 146 -143 150 0 4 66 8 148 8 l147
0 -2 152 -2 152 -98 98 -98 98 -402 0 -403 0 0 -400z m755 150 l49 -50 -302 0
-302 0 0 50 0 50 253 0 253 0 49 -50z"/>
<path d="M11680 2020 l0 -400 100 0 100 0 0 300 0 300 253 0 253 0 52 -53 52
-53 0 -247 0 -247 100 0 100 0 0 297 0 298 -102 102 -103 103 -402 0 -403 0 0
-400z"/>
<path d="M12790 2320 l0 -100 505 0 505 0 0 100 0 100 -505 0 -505 0 0 -100z"/>
<path d="M13900 2020 l0 -400 505 0 506 0 -3 98 -3 97 -402 3 -403 2 0 300 0
300 -100 0 -100 0 0 -400z"/>
<path d="M15010 2020 l0 -400 505 0 506 0 -3 98 -3 97 -402 3 -403 2 0 300 0
300 -100 0 -100 0 0 -400z"/>
<path d="M16630 2020 l0 -400 100 0 100 0 0 150 0 150 305 0 305 0 0 -150 0
-150 100 0 100 0 0 400 0 400 -100 0 -100 0 0 -150 0 -150 -305 0 -305 0 0
150 0 150 -100 0 -100 0 0 -400z"/>
<path d="M17754 2412 c2 -4 93 -107 200 -227 l196 -220 0 -172 0 -173 100 0
100 0 0 178 1 177 196 220 197 220 -135 3 -134 3 -45 -48 c-25 -26 -77 -83
-115 -126 l-70 -78 -113 126 -113 125 -135 0 c-74 0 -133 -4 -130 -8z"/>
<path d="M18850 2020 l0 -400 100 0 100 0 0 150 0 150 405 0 405 0 0 153 0
152 -98 98 -97 97 -408 0 -407 0 0 -400z m765 150 l49 -50 -307 0 -307 0 0 50
0 50 258 0 258 0 49 -50z"/>
<path d="M19970 2320 l0 -100 500 0 500 0 0 100 0 100 -500 0 -500 0 0 -100z"/>
<path d="M21080 2020 l0 -400 100 0 100 0 0 150 0 150 123 0 122 0 150 -150
150 -150 126 0 126 0 -144 142 c-79 78 -143 146 -143 150 0 4 68 8 150 8 l150
0 0 147 0 148 -102 102 -103 103 -402 0 -403 0 0 -400z m755 150 l49 -50 -302
0 -302 0 0 50 0 50 253 0 253 0 49 -50z"/>
<path d="M22190 2020 l0 -400 505 0 506 0 -3 98 -3 97 -402 3 -403 2 0 300 0
300 -100 0 -100 0 0 -400z"/>
<path d="M23300 2020 l0 -400 505 0 505 0 0 400 0 400 -505 0 -505 0 0 -400z
m810 0 l0 -200 -305 0 -305 0 0 200 0 200 305 0 305 0 0 -200z"/>
<path d="M24410 2020 l0 -400 505 0 505 0 0 400 0 400 -505 0 -505 0 0 -400z
m810 0 l0 -200 -305 0 -305 0 0 200 0 200 305 0 305 0 0 -200z"/>
<path d="M25520 2020 l0 -400 100 0 100 0 0 150 0 150 405 0 405 0 0 153 0
152 -98 98 -97 97 -408 0 -407 0 0 -400z m765 150 l49 -50 -307 0 -307 0 0 50
0 50 258 0 258 0 49 -50z"/>
<path d="M12790 2020 l0 -100 505 0 505 0 0 100 0 100 -505 0 -505 0 0 -100z"/>
<path d="M19970 2020 l0 -100 500 0 500 0 0 100 0 100 -500 0 -500 0 0 -100z"/>
<path d="M3535 2045 c-5 -2 -43 -9 -82 -15 -80 -13 -85 -20 -64 -86 5 -16 21
-69 36 -119 14 -49 30 -99 35 -110 5 -11 21 -49 36 -85 157 -383 452 -711 840
-933 190 -108 457 -197 684 -228 187 -25 614 -7 627 27 4 12 -11 124 -22 160
-3 9 -23 8 -77 -3 -117 -24 -424 -22 -563 5 -581 111 -1046 463 -1290 975 -58
123 -119 295 -130 370 -7 46 -9 49 -30 42z"/>
<path d="M12797 1813 c-4 -3 -7 -48 -7 -100 l0 -93 505 0 506 0 -3 98 -3 97
-496 3 c-272 1 -499 -1 -502 -5z"/>
<path d="M19970 1818 c-1 -2 -2 -47 -3 -101 l-2 -97 503 0 502 0 0 100 0 100
-500 0 c-275 0 -500 -1 -500 -2z"/>
</g>
</svg>
