<?xml version="1.0" standalone="no"?>
<!DOCTYPE svg PUBLIC "-//W3C//DTD SVG 20010904//EN"
 "http://www.w3.org/TR/2001/REC-SVG-20010904/DTD/svg10.dtd">
<svg version="1.0" xmlns="http://www.w3.org/2000/svg"
 width="200.000000pt" height="200.000000pt" viewBox="0 0 200.000000 200.000000"
 preserveAspectRatio="xMidYMid meet">

<g transform="translate(0.000000,200.000000) scale(0.100000,-0.100000)"
fill="#000000" stroke="none">
<path d="M726 1031 c-4 -5 -2 -12 3 -15 5 -4 12 -2 15 3 4 5 2 12 -3 15 -5 4
-12 2 -15 -3z"/>
<path d="M657 939 c7 -7 15 -10 18 -7 3 3 -2 9 -12 12 -14 6 -15 5 -6 -5z"/>
<path d="M605 890 c-3 -6 1 -7 9 -4 18 7 21 14 7 14 -6 0 -13 -4 -16 -10z"/>
<path d="M533 783 c0 -9 4 -10 14 -2 7 6 13 12 13 14 0 1 -6 2 -13 2 -8 0 -14
-6 -14 -14z"/>
<path d="M1383 788 c-6 -7 -9 -21 -8 -30 4 -24 -4 -23 -33 5 -14 12 -4 -8 23
-46 26 -38 51 -64 57 -61 7 4 8 2 4 -5 -4 -6 8 -33 29 -61 37 -50 53 -65 36
-32 -5 9 -24 56 -42 105 -31 85 -42 100 -52 75 -4 -10 -6 -10 -6 -1 -1 6 4 15
9 18 6 3 10 11 10 16 0 6 -5 7 -12 3 -8 -5 -9 -2 -5 9 8 20 3 22 -10 5z"/>
<path d="M477 733 c-4 -3 -7 -11 -7 -17 0 -6 5 -5 12 2 6 6 9 14 7 17 -3 3 -9
2 -12 -2z"/>
<path d="M419 663 c-13 -16 -12 -17 4 -4 9 7 17 15 17 17 0 8 -8 3 -21 -13z"/>
<path d="M457 539 l-42 -41 48 37 c26 21 47 39 47 41 0 11 -15 0 -53 -37z"/>
<path d="M626 424 c-14 -14 -20 -36 -19 -71 1 -7 -8 -13 -18 -13 -14 0 -19 -7
-19 -25 0 -17 5 -25 18 -25 15 0 17 -10 15 -85 -2 -82 -1 -85 22 -91 39 -10
45 2 45 92 0 77 2 84 20 84 15 0 20 7 20 25 0 18 -5 25 -20 25 -14 0 -20 7
-20 21 0 12 8 23 20 26 13 3 20 14 20 29 0 21 -5 24 -34 24 -19 0 -42 -7 -50
-16z"/>
<path d="M1207 434 c-4 -4 -7 -76 -7 -160 l0 -154 26 -6 c14 -4 30 -2 35 3 5
5 8 75 7 164 l-3 154 -25 3 c-14 2 -29 0 -33 -4z"/>
<path d="M480 405 c0 -21 5 -25 30 -25 25 0 30 4 30 25 0 21 -5 25 -30 25 -25
0 -30 -4 -30 -25z"/>
<path d="M282 263 l3 -148 50 -3 c27 -2 65 0 83 3 27 5 33 10 30 28 -3 19 -10
22 -50 25 l-48 3 0 120 0 119 -35 0 -36 0 3 -147z"/>
<path d="M480 224 l0 -115 28 3 27 3 3 113 3 112 -31 0 -30 0 0 -116z"/>
<path d="M759 311 c-25 -25 -29 -37 -29 -85 0 -43 5 -61 23 -81 40 -47 163
-44 150 4 -4 17 -9 18 -34 9 -23 -8 -35 -7 -54 6 -46 30 -32 46 40 46 71 0 72
1 55 62 -20 72 -98 92 -151 39z m91 -31 c15 -27 5 -40 -31 -40 -21 0 -29 5
-29 18 0 40 42 55 60 22z"/>
<path d="M960 180 l0 -160 30 0 c30 0 30 0 30 60 l0 59 28 -16 c41 -24 80 -11
98 32 26 62 12 155 -26 175 -28 15 -61 12 -82 -7 -17 -15 -18 -15 -18 0 0 12
-9 17 -30 17 l-30 0 0 -160z m126 86 c17 -67 -20 -134 -52 -92 -16 23 -18 69
-4 97 15 27 48 24 56 -5z"/>
<path d="M1343 333 c-7 -2 -13 -15 -13 -28 0 -22 2 -23 30 -12 34 13 63 2 68
-27 3 -13 -5 -16 -38 -16 -43 0 -90 -33 -90 -64 0 -58 53 -91 101 -63 24 13
28 13 33 0 4 -8 15 -13 28 -11 22 3 23 8 26 95 3 114 -9 133 -85 132 -27 0
-54 -3 -60 -6z m87 -132 c0 -23 -27 -54 -43 -48 -22 7 -31 35 -18 51 19 23 61
21 61 -3z"/>
<path d="M1549 336 c-2 -2 -2 -53 1 -113 5 -107 5 -108 30 -108 24 0 25 3 28
77 2 54 7 80 18 89 29 23 46 -15 42 -94 -3 -63 -1 -68 19 -73 12 -3 27 -3 32
1 18 10 14 177 -5 203 -18 26 -59 29 -92 6 -20 -14 -22 -14 -22 0 0 14 -39 23
-51 12z"/>
</g>
</svg>
