<?xml version="1.0" standalone="no"?>
<!DOCTYPE svg PUBLIC "-//W3C//DTD SVG 20010904//EN"
 "http://www.w3.org/TR/2001/REC-SVG-20010904/DTD/svg10.dtd">
<svg version="1.0" xmlns="http://www.w3.org/2000/svg"
 width="200.000000pt" height="200.000000pt" viewBox="0 0 200.000000 200.000000"
 preserveAspectRatio="xMidYMid meet">

<g transform="translate(0.000000,200.000000) scale(0.100000,-0.100000)"
fill="#000000" stroke="none">
<path d="M337 1001 c4 -9 10 -105 13 -213 4 -177 7 -199 25 -224 65 -86 233
-87 312 -2 36 39 43 73 43 228 0 152 8 193 39 205 23 9 49 -28 56 -79 4 -24 5
-115 3 -203 -3 -141 -5 -164 -22 -182 l-19 -21 63 0 c61 0 62 1 46 19 -14 16
-16 41 -14 195 l3 178 139 -177 c77 -97 155 -190 173 -206 63 -55 63 -55 63
204 0 194 3 236 16 255 19 27 28 28 54 2 19 -19 20 -33 20 -226 0 -122 -4
-213 -10 -225 -10 -18 -7 -19 52 -19 48 0 59 3 50 12 -8 8 -12 50 -12 121 l0
109 90 -4 90 -4 0 33 0 33 -90 0 -90 0 0 76 0 76 93 -5 c50 -3 102 -8 114 -12
21 -7 22 -4 19 31 l-4 39 -240 1 -241 2 15 -23 c12 -18 14 -56 12 -194 l-3
-172 -140 177 c-77 98 -145 184 -152 193 -9 13 -35 16 -131 17 l-120 2 14 -34
c19 -44 20 -327 1 -364 -46 -92 -194 -91 -231 1 -22 55 -23 344 -1 375 14 21
13 21 -46 21 -51 0 -59 -3 -52 -16z"/>
<path d="M352 304 c5 -58 16 -74 54 -74 34 0 45 23 41 82 l-3 53 -2 -57 c-2
-47 -5 -58 -22 -63 -33 -11 -50 12 -50 66 0 30 -4 49 -11 49 -8 0 -10 -18 -7
-56z"/>
<path d="M498 295 c-1 -36 0 -65 4 -65 4 0 8 23 10 51 l3 50 39 -50 c21 -28
42 -51 47 -51 5 0 9 29 9 65 0 40 -4 65 -11 65 -6 0 -9 -16 -8 -40 2 -21 1
-42 -3 -45 -3 -3 -20 15 -39 39 -19 25 -37 46 -41 46 -3 0 -8 -29 -10 -65z"/>
<path d="M651 295 c-1 -38 3 -65 9 -65 6 0 10 28 10 65 0 36 -4 65 -9 65 -5 0
-9 -29 -10 -65z"/>
<path d="M714 337 c9 -37 35 -95 45 -101 10 -7 55 97 49 114 -2 6 -12 -12 -23
-42 l-19 -53 -18 40 c-9 22 -18 46 -18 53 0 6 -5 12 -11 12 -7 0 -9 -9 -5 -23z"/>
<path d="M850 295 l0 -65 35 0 c19 0 35 5 35 10 0 6 -6 10 -12 9 -37 -5 -49 2
-46 24 2 15 9 21 21 19 9 -2 17 2 17 8 0 5 -9 10 -19 10 -13 0 -18 6 -16 18 1
10 11 17 24 16 11 0 21 3 21 8 0 4 -13 8 -30 8 l-30 0 0 -65z"/>
<path d="M950 295 c0 -37 4 -65 10 -65 6 0 10 27 10 61 0 52 2 60 16 55 9 -3
18 -6 20 -6 11 0 2 -31 -11 -36 -8 -4 -15 -9 -15 -13 0 -11 50 -61 62 -61 7 0
-1 13 -16 29 -26 28 -27 31 -12 46 9 9 16 20 16 24 0 16 -25 31 -52 31 -28 0
-28 0 -28 -65z"/>
<path d="M1077 353 c-18 -18 -6 -51 23 -63 42 -17 36 -46 -8 -44 -17 1 -29 -2
-26 -7 8 -13 58 -11 72 3 20 20 14 38 -22 59 -40 23 -39 54 0 46 13 -2 24 0
24 4 0 10 -54 12 -63 2z"/>
<path d="M1180 295 c0 -37 4 -65 10 -65 6 0 10 28 10 65 0 37 -4 65 -10 65 -6
0 -10 -28 -10 -65z"/>
<path d="M1248 350 c19 -8 22 -17 22 -65 0 -30 5 -55 10 -55 6 0 10 27 10 61
0 50 3 60 15 55 8 -3 15 -1 15 4 0 6 -21 10 -47 9 -39 0 -44 -2 -25 -9z"/>
<path d="M1350 356 c0 -5 9 -24 21 -43 13 -20 19 -44 16 -58 -2 -16 0 -25 8
-25 8 0 10 9 8 24 -3 15 4 38 21 62 14 21 23 40 20 43 -3 3 -10 -1 -14 -9 -28
-46 -29 -46 -55 -15 -13 17 -24 26 -25 21z"/>
<path d="M1606 325 c-9 -14 -14 -25 -12 -25 3 0 -1 -21 -9 -46 -8 -26 -10 -43
-6 -38 9 10 52 134 46 134 -1 0 -10 -11 -19 -25z"/>
<path d="M1491 281 c-7 -13 -7 -23 2 -35 10 -14 12 -11 13 19 1 40 -1 42 -15
16z"/>
<path d="M1538 262 l-17 -36 20 21 c12 11 19 27 17 35 -2 9 -10 1 -20 -20z"/>
<path d="M230 75 c0 -36 4 -65 9 -65 4 0 6 23 3 51 -6 61 2 60 49 -6 18 -25
36 -45 41 -45 4 0 7 30 6 68 -1 56 -2 59 -5 20 -2 -27 -8 -48 -12 -48 -4 0
-22 20 -41 45 -19 25 -37 45 -42 45 -4 0 -8 -29 -8 -65z"/>
<path d="M392 124 c-15 -10 -22 -25 -22 -49 0 -63 80 -89 119 -39 26 33 26 45
0 78 -24 30 -63 34 -97 10z m84 -19 c14 -21 15 -31 6 -51 -15 -31 -37 -40 -68
-26 -19 9 -24 19 -24 46 0 57 56 76 86 31z"/>
<path d="M535 75 c0 -37 4 -65 10 -65 6 0 9 23 8 54 -3 58 8 76 33 55 13 -10
12 -14 -3 -31 -16 -17 -15 -20 3 -45 11 -15 26 -29 33 -31 8 -3 3 10 -10 27
-18 24 -20 34 -11 43 29 29 8 58 -41 58 -20 0 -22 -5 -22 -65z"/>
<path d="M659 129 c22 -8 23 -14 19 -64 -3 -36 -1 -55 6 -55 7 0 11 23 11 57
0 49 3 58 18 57 9 -1 17 2 17 7 0 5 -21 9 -47 8 -41 0 -44 -2 -24 -10z"/>
<path d="M760 75 c0 -37 4 -65 10 -65 6 0 10 13 10 30 0 27 3 30 30 30 43 0
45 -2 44 -33 -1 -15 2 -27 7 -27 5 0 9 29 9 65 0 37 -4 65 -10 65 -6 0 -8 -11
-4 -25 6 -24 4 -25 -35 -25 -37 0 -41 2 -41 25 0 14 -4 25 -10 25 -6 0 -10
-28 -10 -65z"/>
<path d="M978 75 c-2 -50 0 -65 11 -65 8 0 11 6 7 16 -10 26 3 54 21 47 11 -4
14 -2 9 5 -4 7 -14 12 -22 12 -9 0 -14 7 -12 18 2 10 12 17 26 16 12 0 22 3
22 8 0 4 -13 8 -29 8 -29 0 -29 -1 -33 -65z"/>
<path d="M1075 75 l0 -65 32 0 c17 0 34 4 38 10 3 5 -7 8 -22 7 -27 -2 -28 -1
-31 56 -4 78 -17 72 -17 -8z"/>
<path d="M1181 116 c-58 -62 39 -146 99 -86 41 41 10 110 -48 110 -17 0 -38
-10 -51 -24z m83 -2 c31 -31 10 -94 -31 -94 -24 0 -53 30 -53 53 0 26 28 57
51 57 10 0 25 -7 33 -16z"/>
<path d="M1330 75 c0 -36 4 -65 10 -65 5 0 9 25 9 56 -1 62 4 72 26 54 14 -12
14 -15 -1 -31 -15 -16 -14 -20 7 -48 13 -17 27 -31 31 -31 10 0 2 16 -20 43
-12 13 -13 20 -4 29 28 28 8 58 -39 58 -17 0 -19 -8 -19 -65z"/>
<path d="M1450 75 c0 -37 4 -65 10 -65 6 0 10 28 10 65 0 37 -4 65 -10 65 -6
0 -10 -28 -10 -65z"/>
<path d="M1514 75 l0 -65 33 0 c41 0 73 30 73 69 0 36 -31 61 -76 61 l-31 0 1
-65z m70 42 c19 -14 25 -62 10 -77 -5 -5 -21 -11 -34 -12 -22 -3 -25 1 -28 36
-5 64 12 82 52 53z"/>
<path d="M1680 137 c0 -2 -11 -31 -24 -65 -14 -34 -21 -62 -16 -62 4 0 11 11
14 25 5 19 13 25 35 25 22 0 30 -6 35 -25 4 -14 11 -25 17 -25 12 0 6 21 -22
86 -11 24 -24 44 -29 44 -6 0 -10 -1 -10 -3z m30 -59 c0 -4 -9 -8 -21 -8 -15
0 -19 4 -15 16 3 9 6 21 6 27 1 13 30 -22 30 -35z"/>
<path d="M1790 20 c0 -5 5 -10 11 -10 5 0 7 5 4 10 -3 6 -8 10 -11 10 -2 0 -4
-4 -4 -10z"/>
</g>
</svg>
